<?xml version="1.0" encoding="utf-8"?>
<!-- Generator: Adobe Illustrator 16.0.0, SVG Export Plug-In . SVG Version: 6.00 Build 0)  -->
<!DOCTYPE svg PUBLIC "-//W3C//DTD SVG 1.1//EN" "http://www.w3.org/Graphics/SVG/1.1/DTD/svg11.dtd">
<svg version="1.1" xmlns="http://www.w3.org/2000/svg" xmlns:xlink="http://www.w3.org/1999/xlink" x="0px" y="0px" width="50px"
	 height="50px" viewBox="0 0 50 50" enable-background="new 0 0 50 50" xml:space="preserve">
<g id="Layer_1">
	<circle fill="#FFFFFF" cx="25" cy="25" r="24.976"/>
	<g id="Layer_3_2_">
		<path fill="none" stroke="#80EDFF" stroke-width="3" stroke-miterlimit="10" d="M4.899,7.667
			c8.485,0.869,9.511,10.834,11.91,13.021c3.741,3.409,6.819-0.249,9.888,1.47c6.078,3.408-0.99,18,14.041,23.486"/>
	</g>
	<polygon fill="none" stroke="#636363" stroke-width="1.8" stroke-linejoin="round" stroke-miterlimit="10" points="12.072,42.814 
		25.791,4.331 40.189,40.783 5.539,17.096 45.123,17.883 	"/>
</g>
<g id="shadow">
	<polygon fill="#FFFFFF" points="22.443,16.392 26.354,16.509 25.646,18.496 21.721,18.42 	"/>
	<polygon fill="#FFFFFF" points="30.348,18.496 32.515,18.539 33.875,22.172 31.708,22.128 	"/>
	<polygon fill="#FFFFFF" points="34.737,24.48 37.884,22.069 38.646,24 35.5,26.41 	"/>
	<polygon fill="#FFFFFF" points="26.725,32.896 28.409,31.626 31.764,33.785 30.081,35.058 	"/>
	<polygon fill="#FFFFFF" points="16.963,26.008 18.67,27.175 17.281,31.156 15.574,29.99 	"/>
</g>
<g id="guides" display="none">
	<g display="inline">
		<polygon fill="none" stroke="#020202" stroke-width="0.25" stroke-linejoin="round" stroke-miterlimit="10" points="
			19.364,25.336 8.871,18.163 21.83,18.42 25.839,7.174 30.348,18.589 42.213,18.825 33.144,25.667 38.062,38.117 26.823,30.435 
			14.135,40.006 		"/>
		<polygon fill="none" stroke="#020202" stroke-width="0.25" stroke-linejoin="round" stroke-miterlimit="10" points="
			21.766,24.555 15.535,20.295 23.23,20.448 25.935,12.861 28.977,20.563 36.394,20.71 30.725,24.987 33.805,32.784 26.766,27.973 
			18.261,34.389 		"/>
		<polygon fill="none" stroke="#020202" stroke-width="0.25" stroke-linejoin="round" stroke-miterlimit="10" points="
			14.562,26.898 -4.457,13.897 19.029,14.364 25.647,-4.199 33.09,14.643 53.853,15.056 37.981,27.028 46.574,48.782 26.938,35.358 
			5.883,51.24 		"/>
		<polygon fill="none" stroke="#020202" stroke-width="0.25" stroke-linejoin="round" stroke-miterlimit="10" points="
			16.963,26.117 2.207,16.03 20.43,16.392 25.743,1.488 31.719,16.616 48.033,16.94 35.563,26.348 42.317,43.449 26.881,32.896 
			10.009,45.623 		"/>
		<polygon fill="none" stroke="#020202" stroke-width="0.25" stroke-linejoin="round" stroke-miterlimit="10" points="
			16.963,26.117 20.43,16.392 31.719,16.616 35.563,26.348 26.881,32.896 		"/>
		<polygon fill="none" stroke="#020202" stroke-width="0.25" stroke-linejoin="round" stroke-miterlimit="10" points="
			19.364,25.336 21.83,18.42 30.348,18.589 33.144,25.667 26.823,30.435 		"/>
		<polygon fill="none" stroke="#020202" stroke-width="0.25" stroke-linejoin="round" stroke-miterlimit="10" points="
			26.938,35.358 37.981,27.028 33.09,14.643 19.029,14.364 14.562,26.898 		"/>
	</g>
</g>
</svg>
