<?xml version="1.0" encoding="utf-8"?>
<!-- Generator: Adobe Illustrator 16.0.0, SVG Export Plug-In . SVG Version: 6.00 Build 0)  -->
<!DOCTYPE svg PUBLIC "-//W3C//DTD SVG 1.1//EN" "http://www.w3.org/Graphics/SVG/1.1/DTD/svg11.dtd">
<svg version="1.1" id="Layer_1" xmlns="http://www.w3.org/2000/svg" xmlns:xlink="http://www.w3.org/1999/xlink" x="0px" y="0px"
	 width="150px" height="36px" viewBox="0 0 150 36" enable-background="new 0 0 150 36" xml:space="preserve">
<g id="layer1_4_">
	<path id="path2558_4_" fill="#B4B5B5" d="M139.203,29.971c-0.391-0.129-0.699-0.415-0.787-0.732
		c-0.035-0.128-0.053-2.714-0.053-8.047v-7.86h-0.195h-0.197v2.968c0,2.908-0.002,2.969-0.104,3.146
		c-0.129,0.228-0.273,0.335-0.559,0.41c-0.422,0.113-0.881-0.102-1.049-0.488c-0.105-0.249-0.098-6.881,0.008-7.292
		c0.242-0.927,1.023-1.686,1.936-1.879c0.48-0.103,4.92-0.104,5.398-0.001c0.488,0.104,0.908,0.336,1.277,0.712
		c0.383,0.387,0.561,0.701,0.693,1.22c0.092,0.361,0.096,0.555,0.096,3.705c0,2.882-0.01,3.35-0.074,3.508
		c-0.104,0.244-0.209,0.354-0.443,0.463c-0.389,0.179-0.885,0.063-1.115-0.259l-0.119-0.167l-0.012-3.022l-0.016-3.024h-0.195
		h-0.195v7.899c0,8.658,0.02,8.082-0.287,8.405c-0.242,0.254-0.488,0.352-0.898,0.352s-0.656-0.098-0.898-0.352
		c-0.301-0.317-0.287-0.071-0.287-5.148v-4.642h-0.197h-0.197v4.642c0,3.78-0.012,4.67-0.066,4.799
		c-0.1,0.237-0.314,0.472-0.543,0.587C139.904,29.985,139.408,30.037,139.203,29.971z M140.313,9.644
		c-0.598-0.213-0.967-0.542-1.227-1.092c-0.145-0.305-0.154-0.364-0.154-0.871c0-0.514,0.008-0.563,0.158-0.868
		c0.752-1.529,2.924-1.532,3.676-0.007c0.154,0.316,0.164,0.356,0.164,0.899c0,0.522-0.014,0.591-0.141,0.85
		c-0.213,0.434-0.527,0.75-0.955,0.962c-0.334,0.165-0.42,0.186-0.824,0.2C140.672,9.728,140.498,9.71,140.313,9.644z"/>
</g>
<path id="path2323_1_" fill="#636464" d="M9.862,12.059c-1.508,0-2.307,0.821-2.674,1.784l-1.957,5.054
	c-0.777,0.1-2.154,1.011-2.154,2.736v6.428h1.906v2.053c0,2.53,3.579,2.501,3.579,0v-2.053h6.437h0.002h6.438v2.053
	c0,2.501,3.578,2.53,3.578,0v-2.053h1.906v-6.428c0-1.726-1.375-2.637-2.153-2.736l-1.959-5.054
	c-0.368-0.962-1.167-1.784-2.672-1.784h-2.767H12.66H9.862z M9.837,13.898h5.158h0.006h0.001h5.161
	c0.645,0.006,0.92,0.41,1.106,0.967l1.474,3.977h-7.742h-0.002h-0.004h-7.74l1.475-3.977C8.916,14.309,9.192,13.904,9.837,13.898z
	 M6.831,20.777c0.913,0,1.652,0.762,1.652,1.704c0,0.94-0.74,1.705-1.652,1.705s-1.652-0.765-1.652-1.705
	C5.179,21.539,5.919,20.777,6.831,20.777z M23.171,20.777c0.914,0,1.653,0.762,1.653,1.704c0,0.94-0.739,1.705-1.653,1.705
	s-1.654-0.765-1.654-1.705C21.517,21.539,22.257,20.777,23.171,20.777z"/>
<path id="path2323_2_" fill="#636464" d="M39.862,12.059c-1.508,0-2.307,0.821-2.674,1.784l-1.957,5.054
	c-0.777,0.1-2.154,1.011-2.154,2.736v6.428h1.906v2.053c0,2.53,3.579,2.501,3.579,0v-2.053h6.437h0.002h6.438v2.053
	c0,2.501,3.578,2.53,3.578,0v-2.053h1.906v-6.428c0-1.726-1.375-2.637-2.153-2.736l-1.959-5.054
	c-0.368-0.962-1.167-1.784-2.672-1.784h-2.767H42.66H39.862z M39.837,13.898h5.158h0.006h0.001h5.161
	c0.645,0.006,0.92,0.41,1.106,0.967l1.474,3.977h-7.742h-0.002h-0.004h-7.74l1.475-3.977C38.916,14.309,39.192,13.904,39.837,13.898
	z M36.831,20.777c0.913,0,1.652,0.762,1.652,1.704c0,0.94-0.74,1.705-1.652,1.705s-1.652-0.765-1.652-1.705
	C35.179,21.539,35.919,20.777,36.831,20.777z M53.171,20.777c0.914,0,1.653,0.762,1.653,1.704c0,0.94-0.739,1.705-1.653,1.705
	s-1.654-0.765-1.654-1.705C51.517,21.539,52.257,20.777,53.171,20.777z"/>
<path id="path2323_3_" fill="#636464" d="M69.862,12.059c-1.508,0-2.307,0.821-2.674,1.784l-1.957,5.054
	c-0.777,0.1-2.154,1.011-2.154,2.736v6.428h1.906v2.053c0,2.53,3.579,2.501,3.579,0v-2.053h6.436H75h6.437v2.053
	c0,2.501,3.578,2.53,3.578,0v-2.053h1.906v-6.428c0-1.726-1.375-2.637-2.152-2.736l-1.959-5.054
	c-0.369-0.962-1.168-1.784-2.672-1.784h-2.768H72.66H69.862z M69.837,13.898h5.158H75h0.002h5.16c0.645,0.006,0.92,0.41,1.107,0.967
	l1.473,3.977H75h-0.002h-0.003h-7.74l1.475-3.977C68.916,14.309,69.192,13.904,69.837,13.898z"/>
<path id="path2323_4_" fill="#636464" d="M99.861,12.059c-1.508,0-2.307,0.821-2.674,1.784l-1.957,5.054
	c-0.777,0.1-2.154,1.011-2.154,2.736v6.428h1.906v2.053c0,2.53,3.58,2.501,3.58,0v-2.053h6.436H105h6.438v2.053
	c0,2.501,3.578,2.53,3.578,0v-2.053h1.906v-6.428c0-1.726-1.375-2.637-2.152-2.736l-1.959-5.054
	c-0.369-0.962-1.168-1.784-2.672-1.784h-2.768h-4.711H99.861z M99.836,13.898h5.158H105h0.002h5.16
	c0.645,0.006,0.92,0.41,1.107,0.967l1.473,3.977H105h-0.002h-0.004h-7.74l1.475-3.977C98.916,14.309,99.191,13.904,99.836,13.898z"
	/>
<rect x="120.879" y="31" fill="#E15A26" width="7.279" height="4"/>
<rect x="131.799" y="31" fill="#E15A26" width="7.281" height="4"/>
<rect x="142.719" y="31" fill="#E15A26" width="7.281" height="4"/>
<rect y="32" fill="#E15A26" width="120" height="4"/>
<path fill="#FFFFFF" stroke="#636464" stroke-width="2" stroke-linecap="round" stroke-miterlimit="10" d="M120,11.997
	c0,0,1.813,2.188,1.813,5.37c0,3.181-1.813,5.96-1.813,5.96"/>
<path fill="#FFFFFF" stroke="#636464" stroke-width="2" stroke-linecap="round" stroke-miterlimit="10" d="M124.162,10.104
	c0,0,2.414,2.919,2.414,7.164c0,4.242-2.414,7.949-2.414,7.949"/>
<path fill="#FFFFFF" stroke="#636464" stroke-width="2" stroke-linecap="round" stroke-miterlimit="10" d="M128.621,8.87
	c0,0,2.813,3.396,2.813,8.333s-2.813,9.25-2.813,9.25"/>
</svg>
