<?xml version="1.0" encoding="utf-8"?>
<!-- Generator: Adobe Illustrator 16.0.0, SVG Export Plug-In . SVG Version: 6.00 Build 0)  -->
<!DOCTYPE svg PUBLIC "-//W3C//DTD SVG 1.1//EN" "http://www.w3.org/Graphics/SVG/1.1/DTD/svg11.dtd">
<svg version="1.1" id="Layer_1" xmlns="http://www.w3.org/2000/svg" xmlns:xlink="http://www.w3.org/1999/xlink" x="0px" y="0px"
	 width="40px" height="36px" viewBox="0 0 40 36" enable-background="new 0 0 40 36" xml:space="preserve">
<g>
	<path fill="#636464" d="M23.935,11.316c1.133,0,2.06-0.926,2.06-2.059c0-1.132-0.927-2.059-2.06-2.059
		c-1.145,0-2.06,0.928-2.06,2.06C21.875,10.391,22.79,11.316,23.935,11.316z M27.368,19.556c-3.159,0-5.722,2.563-5.722,5.724
		c0,3.157,2.563,5.721,5.722,5.721c3.157,0,5.722-2.564,5.722-5.721C33.09,22.119,30.525,19.556,27.368,19.556z M27.368,29.284
		c-2.208,0-4.005-1.797-4.005-4.005c0-2.211,1.797-4.006,4.005-4.006s4.007,1.795,4.007,4.006
		C31.375,27.487,29.576,29.284,27.368,29.284z M22.561,17.267h4.808c0,0,0.956-0.162,0.956-1.081c0-0.92-0.956-0.979-0.956-0.979
		h-3.661l-2.21-3.743c-0.343-0.572-0.961-0.95-1.672-0.95c-0.536,0-1.017,0.216-1.372,0.572l-4.234,4.233
		c-0.366,0.344-0.584,0.836-0.584,1.373c0,0.721,0.378,1.328,0.974,1.684l3.833,2.322v5.723L19.46,27.3l1.042-0.877v-7.416
		l-2.575-1.912l2.655-2.666L22.561,17.267z M11.346,19.556c-3.159,0-5.722,2.563-5.722,5.724c0,3.157,2.563,5.721,5.722,5.721
		c3.158,0,5.722-2.564,5.722-5.721C17.068,22.119,14.505,19.556,11.346,19.556z M11.346,29.284c-2.208,0-4.006-1.797-4.006-4.005
		c0-2.211,1.798-4.006,4.006-4.006s4.005,1.795,4.005,4.006C15.352,27.487,13.555,29.284,11.346,29.284z M18.442,26.423
		c0,0,0.087,0.877,1.019,0.877c0.932,0,1.042-0.877,1.042-0.877"/>
</g>
<rect y="32" fill="#1869AE" width="40" height="4"/>
</svg>
