<?xml version="1.0" encoding="utf-8"?>
<!-- Generator: Adobe Illustrator 16.0.0, SVG Export Plug-In . SVG Version: 6.00 Build 0)  -->
<!DOCTYPE svg PUBLIC "-//W3C//DTD SVG 1.1//EN" "http://www.w3.org/Graphics/SVG/1.1/DTD/svg11.dtd">
<svg version="1.1" id="Layer_1" xmlns="http://www.w3.org/2000/svg" xmlns:xlink="http://www.w3.org/1999/xlink" x="0px" y="0px"
	 width="62px" height="36px" viewBox="0 0 62 36" enable-background="new 0 0 62 36" xml:space="preserve">
<g id="layer1">
	<path id="path2558" fill="#B4B5B5" d="M8.466,31.001c-0.391-0.129-0.7-0.415-0.787-0.732c-0.035-0.128-0.052-2.714-0.052-8.047
		v-7.859H7.43H7.233v2.967c0,2.908-0.001,2.97-0.102,3.146c-0.129,0.228-0.275,0.335-0.56,0.41
		c-0.421,0.113-0.881-0.102-1.048-0.488c-0.106-0.249-0.099-6.881,0.008-7.292c0.242-0.927,1.023-1.686,1.936-1.879
		c0.479-0.103,4.918-0.104,5.398-0.001c0.488,0.104,0.907,0.336,1.277,0.712c0.381,0.387,0.56,0.701,0.692,1.22
		c0.092,0.361,0.097,0.555,0.097,3.705c0,2.883-0.01,3.351-0.075,3.509c-0.103,0.244-0.208,0.354-0.442,0.463
		c-0.39,0.179-0.885,0.063-1.116-0.259l-0.119-0.167l-0.013-3.022l-0.014-3.023h-0.196H12.76v7.898c0,8.658,0.02,8.082-0.287,8.405
		c-0.242,0.254-0.488,0.352-0.898,0.352c-0.409,0-0.656-0.098-0.897-0.352c-0.3-0.317-0.287-0.071-0.287-5.148v-4.642h-0.197H9.996
		v4.642c0,3.78-0.013,4.67-0.066,4.799c-0.1,0.237-0.316,0.472-0.543,0.587C9.167,31.016,8.671,31.067,8.466,31.001z M9.575,10.674
		c-0.597-0.213-0.965-0.542-1.226-1.092C8.204,9.277,8.194,9.218,8.194,8.71c0-0.514,0.009-0.563,0.159-0.868
		c0.752-1.529,2.924-1.532,3.675-0.007c0.155,0.316,0.164,0.356,0.164,0.899c0,0.522-0.012,0.591-0.139,0.85
		c-0.213,0.434-0.528,0.75-0.957,0.962c-0.334,0.165-0.418,0.186-0.823,0.2C9.934,10.758,9.761,10.74,9.575,10.674z"/>
</g>
<g>
	<path fill="#636464" d="M52.182,32.06v-9.633c0.484,0.237,1.006,0.403,1.551,0.491c0.299,0.048,0.604,0.073,0.905,0.073l0,0
		c2.754,0,5.075-1.976,5.52-4.698c0.163-1.008,0.05-2.026-0.32-2.96c0.941-0.791,1.572-1.892,1.774-3.138
		c0.224-1.372-0.101-2.748-0.912-3.875c-0.813-1.127-2.015-1.871-3.386-2.094c-0.144-0.023-0.288-0.041-0.433-0.052
		c0.037-2.982-2.115-5.631-5.146-6.125c-0.328-0.053-0.662-0.08-0.99-0.08c-3.018,0-5.56,2.163-6.045,5.146
		c-0.039,0.239-0.064,0.482-0.075,0.726c-1.28,0.712-2.181,1.973-2.421,3.445c-0.074,0.465-0.083,0.941-0.021,1.406
		c-1.117,0.737-1.901,1.921-2.119,3.263c-0.353,2.154,0.819,4.266,2.741,5.16c0.173,2.173,1.811,4.011,4.038,4.373
		c0.258,0.042,0.521,0.064,0.779,0.064c0.828,0,1.625-0.22,2.327-0.607v9.113 M47.621,21.32c-0.139,0-0.281-0.013-0.421-0.034
		c-1.359-0.223-2.311-1.468-2.165-2.834c0.06-0.555-0.297-1.068-0.84-1.204c-1.298-0.323-2.145-1.614-1.93-2.933
		c0.15-0.911,0.749-1.657,1.607-1.998c0.557-0.221,0.838-0.84,0.645-1.405c-0.143-0.409-0.181-0.835-0.109-1.266
		c0.153-0.943,0.81-1.724,1.713-2.038c0.484-0.168,0.793-0.645,0.746-1.155c-0.029-0.325-0.018-0.654,0.036-0.98
		c0.31-1.896,1.923-3.271,3.841-3.271c0.21,0,0.422,0.018,0.631,0.052c2.121,0.345,3.566,2.35,3.221,4.473
		c-0.02,0.115-0.045,0.238-0.078,0.361c-0.1,0.375,0.006,0.777,0.275,1.058c0.27,0.28,0.664,0.4,1.047,0.315
		c0.363-0.081,0.744-0.092,1.115-0.03c1.613,0.263,2.715,1.79,2.451,3.407c-0.149,0.921-0.709,1.702-1.535,2.143
		c-0.275,0.146-0.477,0.402-0.555,0.703c-0.078,0.305-0.027,0.624,0.143,0.887c0.453,0.7,0.629,1.539,0.494,2.362
		c-0.267,1.638-1.662,2.824-3.316,2.824c-0.181,0-0.364-0.016-0.546-0.043c-0.854-0.141-1.614-0.597-2.138-1.287
		c-0.242-0.319-0.639-0.485-1.038-0.43c-0.399,0.054-0.738,0.317-0.887,0.69C49.638,20.665,48.672,21.32,47.621,21.32z"/>
</g>
<rect y="32.03" fill="#1B6F47" width="40" height="4"/>
<rect x="41" y="32.03" fill="#636464" width="21" height="3.971"/>
</svg>
