<?xml version="1.0" encoding="utf-8"?>
<!-- Generator: Adobe Illustrator 16.0.0, SVG Export Plug-In . SVG Version: 6.00 Build 0)  -->
<!DOCTYPE svg PUBLIC "-//W3C//DTD SVG 1.1//EN" "http://www.w3.org/Graphics/SVG/1.1/DTD/svg11.dtd">
<svg version="1.1" id="Layer_1" xmlns="http://www.w3.org/2000/svg" xmlns:xlink="http://www.w3.org/1999/xlink" x="0px" y="0px"
	 width="120px" height="36px" viewBox="0 0 120 36" enable-background="new 0 0 120 36" xml:space="preserve">
<g id="layer1_6_">
	<path id="path2558_6_" fill="#636464" d="M87.342,29.971c-0.391-0.129-0.7-0.415-0.787-0.732c-0.035-0.128-0.053-2.714-0.053-8.047
		v-7.86h-0.197h-0.197v2.968c0,2.908-0.001,2.969-0.102,3.146c-0.129,0.228-0.275,0.335-0.56,0.41
		c-0.421,0.113-0.882-0.102-1.048-0.488c-0.105-0.249-0.099-6.881,0.008-7.292c0.242-0.927,1.023-1.686,1.936-1.879
		c0.479-0.103,4.918-0.104,5.398-0.001c0.488,0.104,0.906,0.336,1.277,0.712c0.381,0.387,0.56,0.701,0.691,1.22
		c0.093,0.361,0.098,0.555,0.098,3.705c0,2.882-0.01,3.35-0.075,3.508c-0.103,0.244-0.208,0.354-0.442,0.463
		c-0.39,0.179-0.885,0.063-1.116-0.259l-0.118-0.167l-0.014-3.022l-0.014-3.024h-0.196h-0.196v7.899c0,8.658,0.02,8.082-0.287,8.405
		c-0.241,0.254-0.487,0.352-0.898,0.352c-0.408,0-0.655-0.098-0.896-0.352c-0.301-0.317-0.287-0.071-0.287-5.148v-4.642h-0.197
		h-0.197v4.642c0,3.78-0.013,4.67-0.066,4.799c-0.1,0.237-0.316,0.472-0.543,0.587C88.043,29.985,87.546,30.037,87.342,29.971z
		 M88.449,9.644c-0.596-0.213-0.965-0.542-1.225-1.092c-0.146-0.305-0.156-0.364-0.156-0.871c0-0.514,0.01-0.563,0.16-0.868
		c0.752-1.529,2.924-1.532,3.675-0.007c0.155,0.316,0.163,0.356,0.163,0.899c0,0.522-0.012,0.591-0.139,0.85
		c-0.213,0.434-0.528,0.75-0.957,0.962c-0.334,0.165-0.418,0.186-0.822,0.2C88.809,9.728,88.636,9.71,88.449,9.644z"/>
</g>
<path id="path2323_5_" fill="#636464" d="M18.189,12.059c-1.507,0-2.306,0.821-2.673,1.784l-1.957,5.054
	c-0.777,0.1-2.154,1.011-2.154,2.736v6.428h1.906v2.053c0,2.53,3.579,2.501,3.579,0v-2.053h6.437h0.001h6.438v2.053
	c0,2.501,3.578,2.53,3.578,0v-2.053h1.906v-6.428c0-1.726-1.375-2.637-2.153-2.736l-1.959-5.054
	c-0.368-0.962-1.167-1.784-2.672-1.784h-2.767h-4.711H18.189z M18.164,13.898h5.159h0.005h0.001h5.161
	c0.645,0.006,0.919,0.41,1.106,0.967l1.474,3.977h-7.742h-0.001h-0.005h-7.739l1.475-3.977
	C17.243,14.309,17.52,13.904,18.164,13.898z M15.158,20.777c0.913,0,1.653,0.762,1.653,1.704c0,0.94-0.741,1.705-1.653,1.705
	c-0.912,0-1.653-0.765-1.653-1.705C13.505,21.539,14.246,20.777,15.158,20.777z M31.498,20.777c0.914,0,1.653,0.762,1.653,1.704
	c0,0.94-0.739,1.705-1.653,1.705s-1.654-0.765-1.654-1.705C29.844,21.539,30.584,20.777,31.498,20.777z"/>
<path id="path2323_6_" fill="#B4B5B5" d="M49.314,12.059c-1.508,0-2.307,0.821-2.674,1.784l-1.957,5.054
	c-0.777,0.1-2.154,1.011-2.154,2.736v6.428h1.906v2.053c0,2.53,3.579,2.501,3.579,0v-2.053h6.437h0.002h6.438v2.053
	c0,2.501,3.578,2.53,3.578,0v-2.053h1.906v-6.428c0-1.726-1.375-2.637-2.153-2.736l-1.959-5.054
	c-0.368-0.962-1.167-1.784-2.672-1.784h-2.767h-4.712H49.314z M49.289,13.898h5.158h0.006h0.001h5.161
	c0.645,0.006,0.92,0.41,1.106,0.967l1.474,3.977h-7.742h-0.002h-0.004h-7.74l1.475-3.977C48.368,14.309,48.645,13.904,49.289,13.898
	z"/>
<rect x="80" y="31" fill="#5EAB45" width="7.28" height="4"/>
<rect x="90.92" y="31" fill="#5EAB45" width="7.281" height="4"/>
<rect x="101.841" y="31" fill="#5EAB45" width="7.28" height="4"/>
<rect x="112.762" y="31" fill="#5EAB45" width="7.238" height="4"/>
<rect y="32" fill="#5EAB45" width="79" height="4"/>
</svg>
